<?xml version="1.0" encoding="utf-8"?>
<!-- Generator: Adobe Illustrator 15.0.0, SVG Export Plug-In . SVG Version: 6.00 Build 0)  -->
<!DOCTYPE svg PUBLIC "-//W3C//DTD SVG 1.1//EN" "http://www.w3.org/Graphics/SVG/1.1/DTD/svg11.dtd">
<svg version="1.1" id="Layer_1" xmlns="http://www.w3.org/2000/svg" xmlns:xlink="http://www.w3.org/1999/xlink" x="0px" y="0px"
	 width="1.2em" height="1.2em" viewBox="0 0 500 500" enable-background="new 0 0 500 500" xml:space="preserve">
<g>
	<path fill="#fff" d="M250-0.006C111.926-0.006,0,111.932,0,250.006c0,138.062,111.926,250,250,250
		c138.062,0,250-111.938,250-250C500,111.932,388.062-0.006,250-0.006z M250,469.371c-120.961,0-219.365-98.404-219.365-219.365
		S129.039,30.629,250,30.629c120.955,0,219.365,98.416,219.365,219.377S370.955,469.371,250,469.371z"/>
	<polygon fill="#fff" points="173.005,250.006 173.005,349.953 361.28,250.006 173.005,150.059 	"/>
</g>
</svg>
