<?xml version="1.0" encoding="utf-8"?>
<!-- Generator: Adobe Illustrator 15.0.0, SVG Export Plug-In . SVG Version: 6.00 Build 0)  -->
<!DOCTYPE svg PUBLIC "-//W3C//DTD SVG 1.1//EN" "http://www.w3.org/Graphics/SVG/1.1/DTD/svg11.dtd">
<svg version="1.1" id="Layer_1" xmlns="http://www.w3.org/2000/svg" xmlns:xlink="http://www.w3.org/1999/xlink" x="0px" y="0px"
	 width="500px" height="500px" viewBox="0 0 500 500" enable-background="new 0 0 500 500" xml:space="preserve">
<path fill="#010101" d="M487.285,429.482L386.271,328.476c22.668-33.614,35.9-74.107,35.9-117.696
	C422.172,94.364,327.808,0,211.398,0C94.982,0,0.618,94.364,0.618,210.779c0,116.41,94.364,210.773,210.78,210.773
	c42.946,0,82.869-12.872,116.184-34.931l101.282,101.282c16.134,16.127,42.287,16.127,58.421,0
	C503.413,471.771,503.413,445.616,487.285,429.482z M50.549,210.779c0-88.689,72.16-160.849,160.849-160.849
	c88.69,0,160.843,72.159,160.843,160.849s-72.153,160.843-160.843,160.843C122.708,371.622,50.549,299.469,50.549,210.779z"/>
</svg>
