<svg width="13" height="12" viewBox="0 0 13 12" version="1.1" xmlns="http://www.w3.org/2000/svg" xmlns:xlink="http://www.w3.org/1999/xlink" xmlns:figma="http://www.figma.com/figma/ns">
<title>Vector</title>
<desc>Created using Figma</desc>
<g id="Canvas" transform="translate(1753 -743)" figma:type="canvas">
<g id="Vector" style="mix-blend-mode:normal;" opacity="0.5" figma:type="vector">
<use xlink:href="#path0_fill" transform="translate(-1752.5 743)" fill="#FFFFFF" style="mix-blend-mode:normal;"/>
</g>
</g>
<defs>
<path id="path0_fill" fill-rule="evenodd" d="M 6 0C 2.685 0 0 2.6865 0 6C 0 8.65125 1.719 10.8998 4.1025 11.6925C 4.4025 11.7488 4.51275 11.5635 4.51275 11.4038C 4.51275 11.2613 4.5075 10.884 4.50525 10.3837C 2.83575 10.746 2.484 9.579 2.484 9.579C 2.211 8.886 1.8165 8.7015 1.8165 8.7015C 1.27275 8.3295 1.8585 8.337 1.8585 8.337C 2.46075 8.379 2.77725 8.955 2.77725 8.955C 3.31275 9.87225 4.182 9.6075 4.52475 9.45375C 4.57875 9.066 4.73325 8.80125 4.905 8.65125C 3.57225 8.50125 2.172 7.98525 2.172 5.6865C 2.172 5.03175 2.4045 4.49625 2.78925 4.07625C 2.72175 3.92475 2.51925 3.315 2.84175 2.4885C 2.84175 2.4885 3.34425 2.32725 4.49175 3.1035C 4.97175 2.97 5.48175 2.904 5.99175 2.901C 6.50175 2.904 7.01175 2.97 7.49175 3.1035C 8.63175 2.32725 9.13425 2.4885 9.13425 2.4885C 9.45675 3.315 9.25425 3.92475 9.19425 4.07625C 9.57675 4.49625 9.80925 5.03175 9.80925 5.6865C 9.80925 7.99125 8.40675 8.499 7.07175 8.64675C 7.28175 8.82675 7.47675 9.19425 7.47675 9.75675C 7.47675 10.5592 7.46925 11.2043 7.46925 11.3993C 7.46925 11.5568 7.57425 11.7443 7.88175 11.6843C 10.2825 10.8975 12 8.6475 12 6C 12 2.6865 9.3135 0 6 0Z"/>
</defs>
</svg>
