<svg width="258" height="259" viewBox="0 0 258 259" version="1.1" xmlns="http://www.w3.org/2000/svg" xmlns:xlink="http://www.w3.org/1999/xlink" xmlns:figma="http://www.figma.com/figma/ns">
<title>Group</title>
<desc>Created using Figma</desc>
<g id="Canvas" transform="translate(1717 17)" figma:type="canvas">
<g id="Group" style="mix-blend-mode:normal;" figma:type="frame">
<g id="Vector" style="mix-blend-mode:normal;" figma:type="vector">
<use xlink:href="#path0_fill" transform="translate(-1717 -16.5)" fill="#FFFFFF" style="mix-blend-mode:normal;"/>
</g>
<g id="Vector" style="mix-blend-mode:normal;" figma:type="vector">
<use xlink:href="#path1_fill" transform="translate(-1689.11 11.3931)" fill="#FFFFFF" style="mix-blend-mode:normal;"/>
</g>
<g id="Vector" style="mix-blend-mode:normal;" figma:type="vector">
<use xlink:href="#path2_fill" transform="translate(-1561.91 138.593)" fill="#FFFFFF" style="mix-blend-mode:normal;"/>
</g>
<g id="Vector" style="mix-blend-mode:normal;" figma:type="vector">
<use xlink:href="#path3_fill" transform="translate(-1668.36 32.1368)" fill="#FFFFFF" style="mix-blend-mode:normal;"/>
</g>
<g id="Vector" style="mix-blend-mode:normal;" figma:type="vector">
<use xlink:href="#path4_fill" transform="translate(-1567.47 133.021)" fill="#FFFFFF" style="mix-blend-mode:normal;"/>
</g>
<g id="Vector" style="mix-blend-mode:normal;" figma:type="vector">
<use xlink:href="#path5_fill" transform="translate(-1647.6 52.8986)" fill="#FFFFFF" style="mix-blend-mode:normal;"/>
</g>
<g id="Vector" style="mix-blend-mode:normal;" figma:type="vector">
<use xlink:href="#path6_fill" transform="translate(-1573.03 127.471)" fill="#FFFFFF" style="mix-blend-mode:normal;"/>
</g>
<g id="Vector" style="mix-blend-mode:normal;" figma:type="vector">
<use xlink:href="#path7_fill" transform="translate(-1622.74 77.756)" fill="#FFFFFF" style="mix-blend-mode:normal;"/>
</g>
</g>
</g>
<defs>
<path id="path0_fill" d="M 129 0C 57.8694 0 0 57.8694 0 129C 0 200.131 57.8694 258 129 258C 200.131 258 258 200.131 258 129C 258 57.8694 200.131 0 129 0ZM 129 249.4C 62.6123 249.4 8.6 195.388 8.6 129C 8.6 62.6123 62.6123 8.6 129 8.6C 195.388 8.6 249.4 62.6123 249.4 129C 249.4 195.388 195.388 249.4 129 249.4Z"/>
<path id="path1_fill" d="M 71.7192 8.48063C 74.0283 7.92163 75.4516 5.59963 74.8969 3.29483C 74.3422 0.985726 72.0159 -0.428973 69.7111 0.117127C 52.7906 4.18493 37.3665 12.8236 25.0943 25.0958C 12.8221 37.368 4.18767 52.7921 0.119868 69.7083C -0.434832 72.0131 0.988468 74.3351 3.29757 74.8941C 3.63297 74.9758 3.97267 75.0102 4.30377 75.0102C 6.24307 75.0102 8.00607 73.6858 8.48337 71.7121C 12.1771 56.3396 20.0289 42.3173 31.1745 31.1674C 42.3201 20.0175 56.3467 12.1743 71.7192 8.48063Z"/>
<path id="path2_fill" d="M 71.7235 0.120107C 69.4101 -0.434593 67.0924 0.9844 66.5377 3.2978C 62.844 18.6703 54.9922 32.6926 43.8466 43.8425C 32.701 54.9924 18.6744 62.8399 3.29757 66.5336C 0.988467 67.0926 -0.434826 69.4146 0.119874 71.7194C 0.592874 73.6931 2.36017 75.0175 4.29947 75.0175C 4.63057 75.0175 4.97026 74.9788 5.30566 74.9014C 22.2305 70.8336 37.6546 62.1949 49.9268 49.9227C 62.199 37.6505 70.8334 22.2264 74.9055 5.3059C 75.4559 3.0011 74.0326 0.679107 71.7235 0.120107Z"/>
<path id="path3_fill" d="M 56.5043 8.49297C 58.8177 7.95547 60.2582 5.64207 59.7164 3.33297C 59.1789 1.01957 56.8569 -0.442432 54.5564 0.120868C 41.2694 3.21687 29.1692 9.93347 19.5501 19.5569C 9.93097 29.1717 3.21007 41.2762 0.114072 54.5632C -0.427728 56.8723 1.01277 59.1857 3.32617 59.7232C 3.65297 59.8049 3.97977 59.835 4.30657 59.835C 6.25877 59.835 8.02607 58.4934 8.49047 56.5111C 11.221 44.7936 17.1507 34.121 25.6303 25.6371C 34.1099 17.1532 44.7911 11.2235 56.5043 8.49297Z"/>
<path id="path4_fill" d="M 59.7121 5.28361C 60.2539 2.97451 58.8134 0.661107 56.5 0.123607C 54.1866 -0.448293 51.8775 1.02231 51.34 3.33571C 48.6095 15.0532 42.6798 25.7258 34.2002 34.2097C 25.7206 42.6936 15.0437 48.6233 3.32617 51.3495C 1.01277 51.887 -0.427735 54.2004 0.114065 56.5095C 0.574165 58.4961 2.34576 59.8334 4.29796 59.8334C 4.62046 59.8334 4.94727 59.799 5.27837 59.7216C 18.5654 56.6256 30.6656 49.909 40.2847 40.2856C 49.8995 30.6708 56.6161 18.5706 59.7121 5.28361Z"/>
<path id="path5_fill" d="M 44.532 3.37886C 44.0203 1.05256 41.7241 -0.400833 39.415 0.0979666C 19.8199 4.38507 4.38725 19.8178 0.10015 39.4129C -0.40725 41.7306 1.06334 44.0225 3.38104 44.5299C 3.69064 44.5987 4.00024 44.6288 4.30554 44.6288C 6.28354 44.6288 8.05944 43.2614 8.50234 41.249C 12.0756 24.9262 24.9326 12.0692 41.2554 8.49586C 43.5688 7.98846 45.0394 5.69656 44.532 3.37886Z"/>
<path id="path6_fill" d="M 44.5321 5.21755C 45.0395 2.89985 43.5689 0.607951 41.2512 0.100551C 38.9292 -0.406849 36.6415 1.05515 36.1341 3.38145C 32.5608 19.7043 19.7039 32.5612 3.38105 36.1345C 1.06335 36.6419 -0.407248 38.9338 0.100152 41.2515C 0.543052 43.264 2.31894 44.6313 4.29694 44.6313C 4.60224 44.6313 4.91184 44.597 5.22144 44.5325C 24.8122 40.2454 40.245 24.8126 44.5321 5.21755Z"/>
<path id="path7_fill" d="M 69.488 34.744C 69.488 15.5875 53.9005 3.28064e-07 34.744 3.28064e-07C 15.5875 3.28064e-07 3.28064e-07 15.5875 3.28064e-07 34.744C 3.28064e-07 53.9005 15.5875 69.488 34.744 69.488C 53.9005 69.488 69.488 53.9005 69.488 34.744ZM 34.744 60.888C 20.3261 60.888 8.6 49.1576 8.6 34.744C 8.6 20.3304 20.3304 8.6 34.744 8.6C 49.1576 8.6 60.888 20.3304 60.888 34.744C 60.888 49.1576 49.1619 60.888 34.744 60.888Z"/>
</defs>
</svg>
